<?xml version="1.0" encoding="UTF-8"?>
<svg width="16px" height="16px" viewBox="0 0 16 16" version="1.1" xmlns="http://www.w3.org/2000/svg" xmlns:xlink="http://www.w3.org/1999/xlink">
    <!-- Generator: Sketch 51.2 (57519) - http://www.bohemiancoding.com/sketch -->
    <title>path-1</title>
    <desc>Created with Sketch.</desc>
    <defs>
        <path d="M14.79125,7.0049928 L3.62125,7.0049928 L8.50125,2.1249928 C8.89125,1.7349928 8.89125,1.0949928 8.50125,0.7049928 C8.3144185,0.51774013 8.0607676,0.4125072 7.79625,0.4125072 C7.5317324,0.4125072 7.2780815,0.51774013 7.09125,0.7049928 L0.50125,7.2949928 C0.11125,7.6849928 0.11125,8.3149928 0.50125,8.7049928 L7.09125,15.2949928 C7.48125,15.6849928 8.11125,15.6849928 8.50125,15.2949928 C8.89125,14.9049928 8.89125,14.2749928 8.50125,13.8849928 L3.62125,9.0049928 L14.79125,9.0049928 C15.34125,9.0049928 15.79125,8.5549928 15.79125,8.0049928 C15.79125,7.4549928 15.34125,7.0049928 14.79125,7.0049928 Z" id="path-1"></path>
    </defs>
    <g id="Page-1" stroke="none" stroke-width="1" fill="none" fill-rule="evenodd">
        <g id="back">
            <mask id="mask-2" fill="white">
                <use xlink:href="#path-1"></use>
            </mask>
            <use id="path-1" fill="#FFFFFF" xlink:href="#path-1"></use>
        </g>
    </g>
</svg>