<?xml version="1.0" encoding="UTF-8"?>
<svg width="18px" height="12px" viewBox="0 0 18 12" version="1.1" xmlns="http://www.w3.org/2000/svg" xmlns:xlink="http://www.w3.org/1999/xlink">
    <!-- Generator: Sketch 51.2 (57519) - http://www.bohemiancoding.com/sketch -->
    <title>hamburger</title>
    <desc>Created with Sketch.</desc>
    <defs></defs>
    <g id="Page-1" stroke="none" stroke-width="1" fill="none" fill-rule="evenodd">
        <g id="hamburger" transform="translate(-3.000000, -6.000000)">
            <polygon id="Shape" points="0 0 24 0 24 24 0 24"></polygon>
            <g transform="translate(3.000000, 6.000000)" fill="#FFFFFF" fill-rule="nonzero" id="group">
                <g>
                    <path d="M1,12 C0.44771525,12 6.76353751e-17,11.5522847 0,11 C-6.76353751e-17,10.4477153 0.44771525,10 1,10 L17,10 C17.5522847,10 18,10.4477153 18,11 C18,11.5522847 17.5522847,12 17,12 L1,12 Z M1,7 C0.44771525,7 6.76353751e-17,6.55228475 0,6 C-6.76353751e-17,5.44771525 0.44771525,5 1,5 L17,5 C17.5522847,5 18,5.44771525 18,6 C18,6.55228475 17.5522847,7 17,7 L1,7 Z M0,1 C-6.76353751e-17,0.44771525 0.44771525,1.01453063e-16 1,0 L17,0 C17.5522847,-1.01453063e-16 18,0.44771525 18,1 C18,1.55228475 17.5522847,2 17,2 L1,2 C0.44771525,2 6.76353751e-17,1.55228475 0,1 Z" id="path-1"></path>
                </g>
            </g>
        </g>
    </g>
</svg>