<?xml version="1.0" encoding="UTF-8"?>
<svg width="18px" height="18px" viewBox="0 0 18 18" version="1.1" xmlns="http://www.w3.org/2000/svg" xmlns:xlink="http://www.w3.org/1999/xlink">
    <!-- Generator: Sketch 51.2 (57519) - http://www.bohemiancoding.com/sketch -->
    <title>a</title>
    <desc>Created with Sketch.</desc>
    <defs>
        <path d="M12.977,11.472 L12.187,11.472 L11.907,11.202 C13.1723582,9.73197316 13.715111,7.77366249 13.387,5.862 C12.917,3.082 10.597,0.862 7.797,0.522 C5.80212388,0.269628618 3.80266532,0.953997953 2.38083163,2.37583163 C0.958997953,3.79766532 0.274628618,5.79712388 0.527,7.792 C0.867,10.592 3.087,12.912 5.867,13.382 C7.77866249,13.710111 9.73697316,13.1673582 11.207,11.902 L11.477,12.182 L11.477,12.972 L15.727,17.222 C16.137,17.632 16.807,17.632 17.217,17.222 C17.627,16.812 17.627,16.142 17.217,15.732 L12.977,11.472 Z M6.977,11.472 C4.487,11.472 2.477,9.462 2.477,6.972 C2.477,4.482 4.487,2.472 6.977,2.472 C9.467,2.472 11.477,4.482 11.477,6.972 C11.477,9.462 9.467,11.472 6.977,11.472 Z" id="path-1"></path>
    </defs>
    <g id="Page-1" stroke="none" stroke-width="1" fill="none" fill-rule="evenodd">
        <g id="search-white">
            <mask id="mask-2" fill="white">
                <use xlink:href="#path-1"></use>
            </mask>
            <use id="a" fill-opacity="0.98" fill="#FFFFFF" xlink:href="#path-1"></use>
        </g>
    </g>
</svg>