<?xml version="1.0" encoding="UTF-8"?>
<svg width="18px" height="18px" viewBox="0 0 18 18" version="1.1" xmlns="http://www.w3.org/2000/svg" xmlns:xlink="http://www.w3.org/1999/xlink">
    <!-- Generator: Sketch 51.2 (57519) - http://www.bohemiancoding.com/sketch -->
    <title>search</title>
    <desc>Created with Sketch.</desc>
    <defs></defs>
    <g id="Page-1" stroke="none" stroke-width="1" fill="none" fill-rule="evenodd">
        <g id="search" transform="translate(-3.000000, -3.000000)">
            <polygon id="Shape" points="0 0 24 0 24 24 0 24"></polygon>
            <g id="Group" transform="translate(3.000000, 3.000000)" fill="#35344C" fill-rule="nonzero">
                <path d="M7.5644535,12.9676346 C10.5485481,12.9676346 12.9676346,10.5485481 12.9676346,7.5644535 C12.9676346,4.58035901 10.5485481,2.16127244 7.5644535,2.16127244 C4.58035901,2.16127244 2.16127244,4.58035901 2.16127244,7.5644535 C2.16127244,10.5485481 4.58035901,12.9676346 7.5644535,12.9676346 Z M13.6229159,12.0946655 L17.7405074,16.212257 C18.1310317,16.6027813 18.1310317,17.2359463 17.7405074,17.6264706 L17.6264706,17.7405074 C17.2359463,18.1310317 16.6027813,18.1310317 16.212257,17.7405074 L12.0946655,13.6229159 C10.831855,14.5687014 9.2635758,15.1289071 7.5644535,15.1289071 C3.38672121,15.1289071 0,11.7421859 0,7.5644535 C0,3.38672121 3.38672121,0 7.5644535,0 C11.7421859,0 15.1289071,3.38672121 15.1289071,7.5644535 C15.1289071,9.2635758 14.5687014,10.831855 13.6229159,12.0946655 Z" id="path-1"></path>
            </g>
        </g>
    </g>
</svg>