<svg xmlns="http://www.w3.org/2000/svg" xmlns:xlink="http://www.w3.org/1999/xlink" width="24" height="24" viewBox="0 0 24 24">
    <defs>
        <path id="a" d="M5.28 0C2.77 0 .388.827.289.863A.422.422 0 0 0 0 1.255v.628c0 .159.098.31.247.38l.193.09c.101 2.988 1.961 4.761 5.019 4.761 2.829 0 4.661-1.806 4.661-4.603V1.478c.177-.095.492-.223.88-.223.387 0 .701.128.88.223V2.51c0 2.797 1.832 4.603 4.661 4.603 3.058 0 4.918-1.773 5.019-4.76l.193-.092A.428.428 0 0 0 22 1.883v-.628a.422.422 0 0 0-.289-.392C21.611.827 19.23 0 16.72 0c-2.06 0-3.759.56-4.359.785A2.79 2.79 0 0 0 11 .418c-.612 0-1.105.215-1.375.367A12.823 12.823 0 0 0 5.28 0zm4.4 7.951c-1.098 0-1.55.839-1.952 1.582-.453.836-.79 1.347-1.568 1.347-.555 0-.94-.13-1.155-.392-.364-.443-.194-1.159-.192-1.164a.423.423 0 0 0-.18-.457.444.444 0 0 0-.494.013c-.043.029-1.059.716-1.059 1.791 0 1.01.787 2.72 3.754 2.72 1.823 0 3.31-.735 4.166-1.464.856.729 2.343 1.464 4.166 1.464 2.967 0 3.754-1.71 3.754-2.72 0-1.075-1.016-1.764-1.059-1.791a.444.444 0 0 0-.495-.013.423.423 0 0 0-.178.457c.001.007.182.721-.18 1.164-.214.263-.611.392-1.168.392-.779 0-1.115-.511-1.567-1.347-.403-.743-.856-1.582-1.953-1.582-.538 0-1.033.206-1.32.353-.287-.145-.789-.353-1.32-.353z"/>
    </defs>
    <use fill-rule="nonzero" transform="translate(1 6)" xlink:href="#a"/>
</svg>
