<svg xmlns="http://www.w3.org/2000/svg" xmlns:xlink="http://www.w3.org/1999/xlink" width="20" height="20" viewBox="0 0 20 20">
    <defs>
        <path id="a" d="M10 10.414l1.121-1.121a1 1 0 0 1 1.415 1.414l-2.829 2.829a1 1 0 0 1-1.414 0l-2.829-2.829A1 1 0 0 1 6.88 9.293L8 10.414V5a1 1 0 1 1 2 0v5.414zM9 0a9 9 0 1 1 0 18A9 9 0 0 1 9 0zm0 2a7 7 0 1 0 0 14A7 7 0 0 0 9 2z"/>
    </defs>
    <g fill="none" fill-rule="evenodd">
        <path d="M0 0h20v20H0z"/>
        <g transform="translate(1 1)">
            <mask id="b" fill="#fff">
                <use xlink:href="#a"/>
            </mask>
            <use fill="#333" xlink:href="#a"/>
            <g fill="#505A78" mask="url(#b)">
                <path d="M-1-1h20v20H-1z"/>
            </g>
        </g>
    </g>
</svg>
