<svg xmlns="http://www.w3.org/2000/svg" width="46" height="35" viewBox="0 0 46 35">
    <g fill="none" fill-rule="evenodd">
        <path fill="#505A78" fill-rule="nonzero" d="M44.174 0H1.825C.817 0 0 .81 0 1.808v31.384C0 34.191.817 35 1.825 35h42.35C45.183 35 46 34.19 46 33.192V1.808C46 .809 45.182 0 44.174 0z"/>
        <path fill="#FFF" d="M16.492 24.562l1.583-5.489h-5.909l-1.583 5.489H6.957l4.074-14.124h3.627l-1.677 5.811h5.908l1.677-5.81h3.627l-4.075 14.123zM38.72 17.5c-1.204 4.176-5.175 7.062-9.76 7.062h-5.989l2.692-9.331h3.626l-1.865 6.465h2.588c2.22 0 4.299-1.694 5.015-4.175.721-2.503-.454-4.217-2.757-4.217h-6.052l.827-2.866h6.133c4.483 0 6.753 2.866 5.543 7.062z"/>
    </g>
</svg>
