<?xml version="1.0" encoding="UTF-8"?>
<svg width="20px" height="20px" viewBox="0 0 20 20" version="1.1" xmlns="http://www.w3.org/2000/svg" xmlns:xlink="http://www.w3.org/1999/xlink">
    <defs>
        <path d="M0,15 L0,6 L3,6 L3,15 L0,15 Z M11,0 L11.613,0 C11.9342672,0.000243871996 12.2358543,0.154825733 12.4236349,0.415500094 C12.6114155,0.676174455 12.6625206,1.01119472 12.561,1.316 L11,6 L17,6 C17.5522847,6 18,6.44771525 18,7 L18,9.764 C17.9998342,9.919207 17.9635433,10.072245 17.894,10.211 L15.276,15.447 C15.1067365,15.7857294 14.7606657,15.9997978 14.382,16 L6,16 C5.44771525,16 5,15.5522847 5,15 L5,6 L11,0 Z" id="path-1"></path>
    </defs>
    <g id="Page-1" stroke="none" stroke-width="1" fill="none" fill-rule="evenodd">
        <g id="like">
            <polygon id="Shape" fill-opacity="0" fill="#FFFFFF" fill-rule="nonzero" points="0 0 20 0 20 20 0 20"></polygon>
            <g id="Group" transform="translate(1.000000, 2.000000)">
                <g id="Clipped">
                    <mask id="mask-2" fill="white">
                        <use xlink:href="#path-1"></use>
                    </mask>
                    <use id="a1" fill="#505A78" xlink:href="#path-1"></use>
                </g>
            </g>
        </g>
    </g>
</svg>