<svg xmlns="http://www.w3.org/2000/svg" xmlns:xlink="http://www.w3.org/1999/xlink" width="24" height="24" viewBox="0 0 24 24">
    <defs>
        <path id="a" d="M5.735 9.194h10c.55 0 1 .45 1 1s-.45 1-1 1h-10c-.55 0-1-.45-1-1s.45-1 1-1zm0-4h10c.55 0 1 .45 1 1s-.45 1-1 1h-10c-.55 0-1-.45-1-1s.45-1 1-1zm0 8h6c.55 0 1 .45 1 1s-.45 1-1 1h-6c-.55 0-1-.45-1-1s.45-1 1-1zm9 .88v4.23c0 .39.42.63.76.43l3.53-2.12c.32-.19.32-.66 0-.86l-3.53-2.12a.508.508 0 0 0-.76.44z"/>
    </defs>
    <use fill-rule="nonzero" xlink:href="#a"/>
</svg>
