<svg xmlns="http://www.w3.org/2000/svg" xmlns:xlink="http://www.w3.org/1999/xlink" width="20" height="20" viewBox="0 0 20 20">
    <defs>
        <path id="a" d="M1 8h4a1 1 0 1 1 0 2H1a1 1 0 1 1 0-2zm0-4h8a1 1 0 1 1 0 2H1a1 1 0 1 1 0-2zm0-4h16a1 1 0 0 1 0 2H1a1 1 0 1 1 0-2z"/>
    </defs>
    <g fill="none" fill-rule="evenodd">
        <path fill="#D8D8D8" fill-opacity="0" d="M0 0h20v20H0z"/>
        <use fill="#3c8cf0" transform="translate(1 4)" xlink:href="#a"/>
        <path fill="#3c8cf0" d="M12.243 14.485l4.95-4.95a1 1 0 0 1 1.414 1.415l-5.657 5.657a1 1 0 0 1-1.414 0l-2.829-2.829a1 1 0 1 1 1.414-1.414l2.122 2.121z"/>
    </g>
</svg>
