<?xml version="1.0" encoding="UTF-8"?>
<svg width="20px" height="20px" viewBox="0 0 20 20" version="1.1" xmlns="http://www.w3.org/2000/svg" xmlns:xlink="http://www.w3.org/1999/xlink">
    <!-- Generator: Sketch 51.2 (57519) - http://www.bohemiancoding.com/sketch -->
    <title>Slice 1</title>
    <desc>Created with Sketch.</desc>
    <defs>
        <path d="M18,8.768 C18,13.611 14.044,17.536 9.164,17.536 C7.67085522,17.5388223 6.20126378,17.1638563 4.892,16.446 L0,18 L1.595,13.296 C0.763581745,11.9321642 0.324798467,10.3652788 0.327,8.768 C0.327,3.926 4.283,0 9.164,0 C14.044,0 18,3.926 18,8.768 Z M9.164,1.396 C5.067,1.396 1.734,4.703 1.734,8.768 C1.734,10.381 2.26,11.875 3.15,13.09 L2.221,15.828 L5.076,14.921 C6.29006814,15.7185123 7.71142237,16.1423456 9.164,16.14 C13.26,16.14 16.593,12.833 16.593,8.769 C16.593,4.704 13.26,1.396 9.163,1.396 L9.164,1.396 Z M13.626,10.788 C13.571,10.698 13.427,10.644 13.211,10.537 C12.994,10.429 11.929,9.909 11.731,9.837 C11.532,9.767 11.387,9.73 11.243,9.945 C11.099,10.16 10.683,10.645 10.557,10.788 C10.431,10.931 10.304,10.949 10.087,10.842 C9.871,10.734 9.173,10.507 8.346,9.775 C7.702,9.205 7.267,8.502 7.141,8.287 C7.015,8.072 7.128,7.956 7.236,7.849 C7.334,7.752 7.453,7.598 7.561,7.472 C7.67,7.347 7.706,7.257 7.777,7.114 C7.85,6.97 7.814,6.845 7.759,6.737 C7.705,6.63 7.272,5.572 7.091,5.142 C6.911,4.712 6.731,4.783 6.604,4.783 C6.478,4.783 6.334,4.765 6.189,4.765 C5.96723045,4.77096362 5.75789527,4.86874995 5.611,5.035 C5.413,5.249 4.853,5.769 4.853,6.827 C4.853,7.884 5.629,8.907 5.738,9.049 C5.846,9.193 7.236,11.433 9.438,12.294 C11.64,13.154 11.64,12.867 12.038,12.831 C12.434,12.795 13.318,12.311 13.5,11.81 C13.68,11.307 13.68,10.877 13.626,10.788 Z" id="path-1"></path>
    </defs>
    <g id="Page-1" stroke="none" stroke-width="1" fill="none" fill-rule="evenodd">
        <g id="whatsapp">
            <polygon id="Shape" fill-opacity="0" fill="#FFFFFF" fill-rule="nonzero" points="0 0 20 0 20 20 0 20"></polygon>
            <g id="Clipped" transform="translate(1.000000, 1.000000)">
                <mask id="mask-2" fill="white">
                    <use xlink:href="#path-1"></use>
                </mask>
                <use id="a" fill="#505A78" xlink:href="#path-1"></use>
            </g>
        </g>
    </g>
</svg>